<svg width="245" height="387" viewBox="0 0 245 387" fill="none" xmlns="http://www.w3.org/2000/svg">
<path d="M142.5 63L132 72L127.537 83.5L144 88L142.5 63Z" fill="#F3D58B"/>
<path d="M157 79.5L173 95L187 71L164.5 74L157 79.5Z" fill="#E9CD6B"/>
<path d="M142.5 42.5L139.699 47.5L142.5 63L159.5 67L163 40.5L142.5 42.5Z" fill="#E9CD6B"/>
<path d="M77.5 169.5L56 190.5L71.9397 212L77.5 219.5L87 203L77.5 169.5Z" fill="#F2DBA1"/>
<path d="M127.537 140.5L100 135L104 155.5L127.537 140.5Z" fill="#F8E9BC"/>
<path d="M219.5 97L182.5 113L180.5 129.5L219.5 97Z" fill="#F3DBA0"/>
<path d="M219.5 97L221.5 53L202.5 91L219.5 97Z" fill="#F2DBA1"/>
<path d="M141.793 108.5L145.5 115L173 113L195 97L173 95L144 105.5L141.793 108.5Z" fill="#F2DBA1"/>
<path d="M192 74L221.5 53L196.5 34.5L187 38L180.5 40.5L170.5 47.5L187 71L192 74Z" fill="#F2DBA1"/>
<path d="M186 8.5L161.5 3L115.5 10.5L142.5 12.5V21L160 25L186 8.5Z" fill="#F8E9BC"/>
<path d="M102.5 28.5L97 24L67 54.5L74.5 74L88.5 51.25L102.5 28.5Z" fill="#E9CD6B"/>
<path d="M107 95L62.5 93L79 129.5L115.5 106.724L107 95Z" fill="#F8E9BC"/>
<path d="M88.5 51.25L107 95L111 54.5L88.5 51.25Z" fill="#F2DBA1"/>
<path d="M142.5 42.5V21L122.284 42.5L111 54.5L123.5 76.4203L139.699 47.5L142.5 42.5Z" fill="#F2DBA1"/>
<path d="M74 226.5L48.5 243L36 279L70 254L74 226.5Z" fill="#F8E9BC"/>
<path d="M89 304L116.5 293.5L131.5 267.5L101 264L89 304Z" fill="#F8E9BC"/>
<path d="M213.5 131L231 125L180.5 129.5L133.5 140.5L127.537 156.913L142.5 152.402L152.128 149.5L163.5 146.072L213.5 131Z" fill="#F8E9BC"/>
<path d="M63 384C63 385.105 62.1046 386 61 386C59.8954 386 59 385.105 59 384C59 382.895 59.8954 382 61 382C62.1046 382 63 382.895 63 384Z" fill="#E9CD6B"/>
<path d="M63 340C63 341.105 62.1046 342 61 342C59.8954 342 59 341.105 59 340C59 338.895 59.8954 338 61 338C62.1046 338 63 338.895 63 340Z" fill="#E9CD6B"/>
<path d="M69 340C69 341.105 68.1046 342 67 342C65.8954 342 65 341.105 65 340C65 338.895 65.8954 338 67 338C68.1046 338 69 338.895 69 340Z" fill="#E9CD6B"/>
<path d="M91 304C91 305.105 90.1046 306 89 306C87.8954 306 87 305.105 87 304C87 302.895 87.8954 302 89 302C90.1046 302 91 302.895 91 304Z" fill="#E9CD6B"/>
<path d="M130 336C130 337.105 129.105 338 128 338C126.895 338 126 337.105 126 336C126 334.895 126.895 334 128 334C129.105 334 130 334.895 130 336Z" fill="#E9CD6B"/>
<path d="M130 296C130 297.105 129.105 298 128 298C126.895 298 126 297.105 126 296C126 294.895 126.895 294 128 294C129.105 294 130 294.895 130 296Z" fill="#E9CD6B"/>
<path d="M119 292C119 293.105 118.105 294 117 294C115.895 294 115 293.105 115 292C115 290.895 115.895 290 117 290C118.105 290 119 290.895 119 292Z" fill="#E9CD6B"/>
<path d="M134 268C134 269.105 133.105 270 132 270C130.895 270 130 269.105 130 268C130 266.895 130.895 266 132 266C133.105 266 134 266.895 134 268Z" fill="#E9CD6B"/>
<path d="M103 264C103 265.105 102.105 266 101 266C99.8954 266 99 265.105 99 264C99 262.895 99.8954 262 101 262C102.105 262 103 262.895 103 264Z" fill="#E9CD6B"/>
<path d="M91 243C91 244.105 90.1046 245 89 245C87.8954 245 87 244.105 87 243C87 241.895 87.8954 241 89 241C90.1046 241 91 241.895 91 243Z" fill="#E9CD6B"/>
<path d="M108 217C108 218.105 107.105 219 106 219C104.895 219 104 218.105 104 217C104 215.895 104.895 215 106 215C107.105 215 108 215.895 108 217Z" fill="#E9CD6B"/>
<path d="M110 224C110 225.105 109.105 226 108 226C106.895 226 106 225.105 106 224C106 222.895 106.895 222 108 222C109.105 222 110 222.895 110 224Z" fill="#E9CD6B"/>
<path d="M115 220C115 221.105 114.105 222 113 222C111.895 222 111 221.105 111 220C111 218.895 111.895 218 113 218C114.105 218 115 218.895 115 220Z" fill="#E9CD6B"/>
<path d="M115 206C115 207.105 114.105 208 113 208C111.895 208 111 207.105 111 206C111 204.895 111.895 204 113 204C114.105 204 115 204.895 115 206Z" fill="#E9CD6B"/>
<path d="M137 236C137 237.105 136.105 238 135 238C133.895 238 133 237.105 133 236C133 234.895 133.895 234 135 234C136.105 234 137 234.895 137 236Z" fill="#E9CD6B"/>
<path d="M134 206C134 207.105 133.105 208 132 208C130.895 208 130 207.105 130 206C130 204.895 130.895 204 132 204C133.105 204 134 204.895 134 206Z" fill="#E9CD6B"/>
<path d="M122 199C122 200.105 121.105 201 120 201C118.895 201 118 200.105 118 199C118 197.895 118.895 197 120 197C121.105 197 122 197.895 122 199Z" fill="#E9CD6B"/>
<path d="M126 175C126 176.105 125.105 177 124 177C122.895 177 122 176.105 122 175C122 173.895 122.895 173 124 173C125.105 173 126 173.895 126 175Z" fill="#E9CD6B"/>
<path d="M135 201C135 202.105 134.105 203 133 203C131.895 203 131 202.105 131 201C131 199.895 131.895 199 133 199C134.105 199 135 199.895 135 201Z" fill="#E9CD6B"/>
<path d="M152 175C152 176.105 151.105 177 150 177C148.895 177 148 176.105 148 175C148 173.895 148.895 173 150 173C151.105 173 152 173.895 152 175Z" fill="#E9CD6B"/>
<path d="M148 162C148 163.105 147.105 164 146 164C144.895 164 144 163.105 144 162C144 160.895 144.895 160 146 160C147.105 160 148 160.895 148 162Z" fill="#E9CD6B"/>
<path d="M165 177C165 178.105 164.105 179 163 179C161.895 179 161 178.105 161 177C161 175.895 161.895 175 163 175C164.105 175 165 175.895 165 177Z" fill="#E9CD6B"/>
<path d="M159 159C159 160.105 158.105 161 157 161C155.895 161 155 160.105 155 159C155 157.895 155.895 157 157 157C158.105 157 159 157.895 159 159Z" fill="#E9CD6B"/>
<path d="M177 163C177 164.105 176.105 165 175 165C173.895 165 173 164.105 173 163C173 161.895 173.895 161 175 161C176.105 161 177 161.895 177 163Z" fill="#E9CD6B"/>
<path d="M171 154C171 155.105 170.105 156 169 156C167.895 156 167 155.105 167 154C167 152.895 167.895 152 169 152C170.105 152 171 152.895 171 154Z" fill="#E9CD6B"/>
<path d="M202 150C202 151.105 201.105 152 200 152C198.895 152 198 151.105 198 150C198 148.895 198.895 148 200 148C201.105 148 202 148.895 202 150Z" fill="#E9CD6B"/>
<path d="M215 132C215 133.105 214.105 134 213 134C211.895 134 211 133.105 211 132C211 130.895 211.895 130 213 130C214.105 130 215 130.895 215 132Z" fill="#E9CD6B"/>
<path d="M233 125C233 126.105 232.105 127 231 127C229.895 127 229 126.105 229 125C229 123.895 229.895 123 231 123C232.105 123 233 123.895 233 125Z" fill="#E9CD6B"/>
<path d="M244 54C244 55.1046 243.105 56 242 56C240.895 56 240 55.1046 240 54C240 52.8954 240.895 52 242 52C243.105 52 244 52.8954 244 54Z" fill="#E9CD6B"/>
<path d="M224 52C224 53.1046 223.105 54 222 54C220.895 54 220 53.1046 220 52C220 50.8954 220.895 50 222 50C223.105 50 224 50.8954 224 52Z" fill="#E9CD6B"/>
<path d="M229 26C229 27.1046 228.105 28 227 28C225.895 28 225 27.1046 225 26C225 24.8954 225.895 24 227 24C228.105 24 229 24.8954 229 26Z" fill="#E9CD6B"/>
<path d="M188 9C188 10.1046 187.105 11 186 11C184.895 11 184 10.1046 184 9C184 7.89543 184.895 7 186 7C187.105 7 188 7.89543 188 9Z" fill="#E9CD6B"/>
<path d="M164 3C164 4.10457 163.105 5 162 5C160.895 5 160 4.10457 160 3C160 1.89543 160.895 1 162 1C163.105 1 164 1.89543 164 3Z" fill="#E9CD6B"/>
<path d="M118 11C118 12.1046 117.105 13 116 13C114.895 13 114 12.1046 114 11C114 9.89543 114.895 9 116 9C117.105 9 118 9.89543 118 11Z" fill="#E9CD6B"/>
<path d="M99 24C99 25.1046 98.1046 26 97 26C95.8954 26 95 25.1046 95 24C95 22.8954 95.8954 22 97 22C98.1046 22 99 22.8954 99 24Z" fill="#E9CD6B"/>
<path d="M69 55C69 56.1046 68.1046 57 67 57C65.8954 57 65 56.1046 65 55C65 53.8954 65.8954 53 67 53C68.1046 53 69 53.8954 69 55Z" fill="#E9CD6B"/>
<path d="M77 74C77 75.1046 76.1046 76 75 76C73.8954 76 73 75.1046 73 74C73 72.8954 73.8954 72 75 72C76.1046 72 77 72.8954 77 74Z" fill="#E9CD6B"/>
<path d="M65 92C65 93.1046 64.1046 94 63 94C61.8954 94 61 93.1046 61 92C61 90.8954 61.8954 90 63 90C64.1046 90 65 90.8954 65 92Z" fill="#E9CD6B"/>
<path d="M109 95C109 96.1046 108.105 97 107 97C105.895 97 105 96.1046 105 95C105 93.8954 105.895 93 107 93C108.105 93 109 93.8954 109 95Z" fill="#E9CD6B"/>
<path d="M117 107C117 108.105 116.105 109 115 109C113.895 109 113 108.105 113 107C113 105.895 113.895 105 115 105C116.105 105 117 105.895 117 107Z" fill="#E9CD6B"/>
<path d="M123 115C123 116.105 122.105 117 121 117C119.895 117 119 116.105 119 115C119 113.895 119.895 113 121 113C122.105 113 123 113.895 123 115Z" fill="#E9CD6B"/>
<path d="M148 115C148 116.105 147.105 117 146 117C144.895 117 144 116.105 144 115C144 113.895 144.895 113 146 113C147.105 113 148 113.895 148 115Z" fill="#E9CD6B"/>
<path d="M144 107C144 108.105 143.105 109 142 109C140.895 109 140 108.105 140 107C140 105.895 140.895 105 142 105C143.105 105 144 105.895 144 107Z" fill="#E9CD6B"/>
<path d="M175 95C175 96.1046 174.105 97 173 97C171.895 97 171 96.1046 171 95C171 93.8954 171.895 93 173 93C174.105 93 175 93.8954 175 95Z" fill="#E9CD6B"/>
<path d="M198 97C198 98.1046 197.105 99 196 99C194.895 99 194 98.1046 194 97C194 95.8954 194.895 95 196 95C197.105 95 198 95.8954 198 97Z" fill="#E9CD6B"/>
<path d="M175 113C175 114.105 174.105 115 173 115C171.895 115 171 114.105 171 113C171 111.895 171.895 111 173 111C174.105 111 175 111.895 175 113Z" fill="#E9CD6B"/>
<path d="M184 113C184 114.105 183.105 115 182 115C180.895 115 180 114.105 180 113C180 111.895 180.895 111 182 111C183.105 111 184 111.895 184 113Z" fill="#E9CD6B"/>
<path d="M182 129C182 130.105 181.105 131 180 131C178.895 131 178 130.105 178 129C178 127.895 178.895 127 180 127C181.105 127 182 127.895 182 129Z" fill="#E9CD6B"/>
<path d="M222 97C222 98.1046 221.105 99 220 99C218.895 99 218 98.1046 218 97C218 95.8954 218.895 95 220 95C221.105 95 222 95.8954 222 97Z" fill="#E9CD6B"/>
<path d="M204 91C204 92.1046 203.105 93 202 93C200.895 93 200 92.1046 200 91C200 89.8954 200.895 89 202 89C203.105 89 204 89.8954 204 91Z" fill="#E9CD6B"/>
<path d="M194 74C194 75.1046 193.105 76 192 76C190.895 76 190 75.1046 190 74C190 72.8954 190.895 72 192 72C193.105 72 194 72.8954 194 74Z" fill="#E9CD6B"/>
<path d="M188 70C188 71.1046 187.105 72 186 72C184.895 72 184 71.1046 184 70C184 68.8954 184.895 68 186 68C187.105 68 188 68.8954 188 70Z" fill="#E9CD6B"/>
<path d="M173 48C173 49.1046 172.105 50 171 50C169.895 50 169 49.1046 169 48C169 46.8954 169.895 46 171 46C172.105 46 173 46.8954 173 48Z" fill="#E9CD6B"/>
<path d="M182 41C182 42.1046 181.105 43 180 43C178.895 43 178 42.1046 178 41C178 39.8954 178.895 39 180 39C181.105 39 182 39.8954 182 41Z" fill="#E9CD6B"/>
<path d="M184 30C184 31.1046 183.105 32 182 32C180.895 32 180 31.1046 180 30C180 28.8954 180.895 28 182 28C183.105 28 184 28.8954 184 30Z" fill="#E9CD6B"/>
<path d="M144 20C144 21.1046 143.105 22 142 22C140.895 22 140 21.1046 140 20C140 18.8954 140.895 18 142 18C143.105 18 144 18.8954 144 20Z" fill="#E9CD6B"/>
<path d="M144 13C144 14.1046 143.105 15 142 15C140.895 15 140 14.1046 140 13C140 11.8954 140.895 11 142 11C143.105 11 144 11.8954 144 13Z" fill="#E9CD6B"/>
<path d="M144 43C144 44.1046 143.105 45 142 45C140.895 45 140 44.1046 140 43C140 41.8954 140.895 41 142 41C143.105 41 144 41.8954 144 43Z" fill="#E9CD6B"/>
<path d="M165 41C165 42.1046 164.105 43 163 43C161.895 43 161 42.1046 161 41C161 39.8954 161.895 39 163 39C164.105 39 165 39.8954 165 41Z" fill="#E9CD6B"/>
<path d="M144 63C144 64.1046 143.105 65 142 65C140.895 65 140 64.1046 140 63C140 61.8954 140.895 61 142 61C143.105 61 144 61.8954 144 63Z" fill="#E9CD6B"/>
<path d="M161 67C161 68.1046 160.105 69 159 69C157.895 69 157 68.1046 157 67C157 65.8954 157.895 65 159 65C160.105 65 161 65.8954 161 67Z" fill="#E9CD6B"/>
<path d="M159 80C159 81.1046 158.105 82 157 82C155.895 82 155 81.1046 155 80C155 78.8954 155.895 78 157 78C158.105 78 159 78.8954 159 80Z" fill="#E9CD6B"/>
<path d="M146 87C146 88.1046 145.105 89 144 89C142.895 89 142 88.1046 142 87C142 85.8954 142.895 85 144 85C145.105 85 146 85.8954 146 87Z" fill="#E9CD6B"/>
<path d="M129 83C129 84.1046 128.105 85 127 85C125.895 85 125 84.1046 125 83C125 81.8954 125.895 81 127 81C128.105 81 129 81.8954 129 83Z" fill="#E9CD6B"/>
<path d="M113 55C113 56.1046 112.105 57 111 57C109.895 57 109 56.1046 109 55C109 53.8954 109.895 53 111 53C112.105 53 113 53.8954 113 55Z" fill="#E9CD6B"/>
<path d="M91 52C91 53.1046 90.1046 54 89 54C87.8954 54 87 53.1046 87 52C87 50.8954 87.8954 50 89 50C90.1046 50 91 50.8954 91 52Z" fill="#E9CD6B"/>
<path d="M82 129C82 130.105 81.1046 131 80 131C78.8954 131 78 130.105 78 129C78 127.895 78.8954 127 80 127C81.1046 127 82 127.895 82 129Z" fill="#E9CD6B"/>
<path d="M102 135C102 136.105 101.105 137 100 137C98.8954 137 98 136.105 98 135C98 133.895 98.8954 133 100 133C101.105 133 102 133.895 102 135Z" fill="#E9CD6B"/>
<path d="M129 141C129 142.105 128.105 143 127 143C125.895 143 125 142.105 125 141C125 139.895 125.895 139 127 139C128.105 139 129 139.895 129 141Z" fill="#E9CD6B"/>
<path d="M116 115C116 116.105 115.105 117 114 117C112.895 117 112 116.105 112 115C112 113.895 112.895 113 114 113C115.105 113 116 113.895 116 115Z" fill="#E9CD6B"/>
<path d="M136 141C136 142.105 135.105 143 134 143C132.895 143 132 142.105 132 141C132 139.895 132.895 139 134 139C135.105 139 136 139.895 136 141Z" fill="#E9CD6B"/>
<path d="M130 157C130 158.105 129.105 159 128 159C126.895 159 126 158.105 126 157C126 155.895 126.895 155 128 155C129.105 155 130 155.895 130 157Z" fill="#E9CD6B"/>
<path d="M115 157C115 158.105 114.105 159 113 159C111.895 159 111 158.105 111 157C111 155.895 111.895 155 113 155C114.105 155 115 155.895 115 157Z" fill="#E9CD6B"/>
<path d="M106 155C106 156.105 105.105 157 104 157C102.895 157 102 156.105 102 155C102 153.895 102.895 153 104 153C105.105 153 106 153.895 106 155Z" fill="#E9CD6B"/>
<path d="M101 174C101 175.105 100.105 176 99 176C97.8954 176 97 175.105 97 174C97 172.895 97.8954 172 99 172C100.105 172 101 172.895 101 174Z" fill="#E9CD6B"/>
<path d="M120 175C120 176.105 119.105 177 118 177C116.895 177 116 176.105 116 175C116 173.895 116.895 173 118 173C119.105 173 120 173.895 120 175Z" fill="#E9CD6B"/>
<path d="M115 195C115 196.105 114.105 197 113 197C111.895 197 111 196.105 111 195C111 193.895 111.895 193 113 193C114.105 193 115 193.895 115 195Z" fill="#E9CD6B"/>
<path d="M87 230C87 231.105 86.1046 232 85 232C83.8954 232 83 231.105 83 230C83 228.895 83.8954 228 85 228C86.1046 228 87 228.895 87 230Z" fill="#E9CD6B"/>
<path d="M79 220C79 221.105 78.1046 222 77 222C75.8954 222 75 221.105 75 220C75 218.895 75.8954 218 77 218C78.1046 218 79 218.895 79 220Z" fill="#E9CD6B"/>
<path d="M89 203C89 204.105 88.1046 205 87 205C85.8954 205 85 204.105 85 203C85 201.895 85.8954 201 87 201C88.1046 201 89 201.895 89 203Z" fill="#E9CD6B"/>
<path d="M79 170C79 171.105 78.1046 172 77 172C75.8954 172 75 171.105 75 170C75 168.895 75.8954 168 77 168C78.1046 168 79 168.895 79 170Z" fill="#E9CD6B"/>
<path d="M77 226C77 227.105 76.1046 228 75 228C73.8954 228 73 227.105 73 226C73 224.895 73.8954 224 75 224C76.1046 224 77 224.895 77 226Z" fill="#E9CD6B"/>
<path d="M71 254C71 255.105 70.1046 256 69 256C67.8954 256 67 255.105 67 254C67 252.895 67.8954 252 69 252C70.1046 252 71 252.895 71 254Z" fill="#E9CD6B"/>
<path d="M50 243C50 244.105 49.1046 245 48 245C46.8954 245 46 244.105 46 243C46 241.895 46.8954 241 48 241C49.1046 241 50 241.895 50 243Z" fill="#E9CD6B"/>
<path d="M27 235C27 236.105 26.1046 237 25 237C23.8954 237 23 236.105 23 235C23 233.895 23.8954 233 25 233C26.1046 233 27 233.895 27 235Z" fill="#E9CD6B"/>
<path d="M82 302C82 303.105 81.1046 304 80 304C78.8954 304 78 303.105 78 302C78 300.895 78.8954 300 80 300C81.1046 300 82 300.895 82 302Z" fill="#E9CD6B"/>
<path d="M58 207C58 208.105 57.1046 209 56 209C54.8954 209 54 208.105 54 207C54 205.895 54.8954 205 56 205C57.1046 205 58 205.895 58 207Z" fill="#E9CD6B"/>
<path d="M23 205C23 206.105 22.1046 207 21 207C19.8954 207 19 206.105 19 205C19 203.895 19.8954 203 21 203C22.1046 203 23 203.895 23 205Z" fill="#E9CD6B"/>
<path d="M5 229C5 230.105 4.10457 231 3 231C1.89543 231 1 230.105 1 229C1 227.895 1.89543 227 3 227C4.10457 227 5 227.895 5 229Z" fill="#E9CD6B"/>
<path d="M38 279C38 280.105 37.1046 281 36 281C34.8954 281 34 280.105 34 279C34 277.895 34.8954 277 36 277C37.1046 277 38 277.895 38 279Z" fill="#E9CD6B"/>
<path d="M58 191C58 192.105 57.1046 193 56 193C54.8954 193 54 192.105 54 191C54 189.895 54.8954 189 56 189C57.1046 189 58 189.895 58 191Z" fill="#E9CD6B"/>
<path d="M156 159L174 162L163.5 146.072M163.5 146.072L152.128 149.5M163.5 146.072L213.5 131M169 154L199.5 149.5L213.5 131M213.5 131L231 125M213.5 131L127.537 156.913M231 125L242.5 54.5L221.5 53M231 125L180.5 129.5M221.5 53L227.5 26L186 8.5M221.5 53L219.5 97M221.5 53L202.5 91M221.5 53L192 74M221.5 53L196.5 34.5L187 38M186 8.5L161.5 3L115.5 10.5M186 8.5L160 25M186 8.5L187 38M115.5 10.5L102.5 28.5M115.5 10.5L142.5 12.5V21M115.5 10.5L122.284 42.5M102.5 28.5L97 24L67 54.5L74.5 74M102.5 28.5L88.5 51.25M74.5 74L62.5 93M74.5 74L88.5 51.25M62.5 93L107 95M62.5 93L79 129.5M107 95L88.5 51.25M107 95L111 54.5M107 95L115.5 106.724M88.5 51.25L111 54.5M121.5 115H145.5M121.5 115L115.5 106.724M121.5 115H113.5L127.537 140.5M145.5 115L141.793 108.5M145.5 115L173 113M111 54.5L123.5 76.4203M111 54.5L122.284 42.5M142.5 21V42.5M142.5 21L160 25M142.5 21L122.284 42.5M142.5 42.5L139.699 47.5M142.5 42.5L163 40.5M123.5 76.4203L139.699 47.5M123.5 76.4203L127.537 83.5M139.699 47.5L142.5 63M142.5 63L159.5 67M142.5 63L132 72L127.537 83.5M142.5 63L144 88M159.5 67L163 40.5M159.5 67L157 79.5M163 40.5L170.5 47.5M127.537 83.5L144 88M127.537 83.5L141.793 108.5M144 88V105.5M144 88L157 79.5M141.793 108.5L144 105.5M144 105.5L173 95M173 95L157 79.5M173 95L187 71M173 95L195 97M173 95L192 74M157 79.5L164.5 74L187 71M187 71L192 74M187 71L170.5 47.5M195 97L173 113M195 97L202.5 91M173 113H182.5M182.5 113L219.5 97M182.5 113L180.5 129.5M219.5 97L202.5 91M219.5 97L180.5 129.5M170.5 47.5L180.5 40.5M180.5 40.5L187 38M180.5 40.5L182.5 30L160 25M79 129.5L115.5 106.724M79 129.5L100 135M180.5 129.5L133.5 140.5M133.5 140.5L127.537 156.913M133.5 140.5H127.537M127.537 156.913H113.5M127.537 156.913L142.5 152.402M127.537 140.5L100 135M127.537 140.5L104 155.5M100 135L104 155.5M104 155.5L113.5 156.913M113.5 156.913L98 174L118.5 174.788M124 175L120 199L113 206.5M124 175L132.5 201L149.5 175L146 162M124 175L118.5 174.788M89 304L66.5 340.5L61 383.5V340.5L80.5 300.5L77.5 219.5M89 304L128.5 336V296L116.5 293.5M89 304L116.5 293.5M89 304L101 264L131.5 267.5L116.5 293.5M89 304V243L106 216.5L108 224L113 220.5V206.5M113 206.5L134.5 235.5L131.5 206.5H113ZM146 162L142.5 152.402M146 162L163.5 176.5L152.128 149.5M142.5 152.402L152.128 149.5M77.5 219.5L87 203L77.5 169.5L56 190.5L71.9397 212M77.5 219.5L85 230.5L113 195.5L118.5 174.788M77.5 219.5L71.9397 212M56 206.5L71.9397 212M56 206.5L21.5 204.5L3 229L25.5 235.5L56 206.5ZM74 226.5L48.5 243L36 279L70 254L74 226.5ZM63 384C63 385.105 62.1046 386 61 386C59.8954 386 59 385.105 59 384C59 382.895 59.8954 382 61 382C62.1046 382 63 382.895 63 384ZM63 340C63 341.105 62.1046 342 61 342C59.8954 342 59 341.105 59 340C59 338.895 59.8954 338 61 338C62.1046 338 63 338.895 63 340ZM69 340C69 341.105 68.1046 342 67 342C65.8954 342 65 341.105 65 340C65 338.895 65.8954 338 67 338C68.1046 338 69 338.895 69 340ZM91 304C91 305.105 90.1046 306 89 306C87.8954 306 87 305.105 87 304C87 302.895 87.8954 302 89 302C90.1046 302 91 302.895 91 304ZM130 336C130 337.105 129.105 338 128 338C126.895 338 126 337.105 126 336C126 334.895 126.895 334 128 334C129.105 334 130 334.895 130 336ZM130 296C130 297.105 129.105 298 128 298C126.895 298 126 297.105 126 296C126 294.895 126.895 294 128 294C129.105 294 130 294.895 130 296ZM119 292C119 293.105 118.105 294 117 294C115.895 294 115 293.105 115 292C115 290.895 115.895 290 117 290C118.105 290 119 290.895 119 292ZM134 268C134 269.105 133.105 270 132 270C130.895 270 130 269.105 130 268C130 266.895 130.895 266 132 266C133.105 266 134 266.895 134 268ZM103 264C103 265.105 102.105 266 101 266C99.8954 266 99 265.105 99 264C99 262.895 99.8954 262 101 262C102.105 262 103 262.895 103 264ZM91 243C91 244.105 90.1046 245 89 245C87.8954 245 87 244.105 87 243C87 241.895 87.8954 241 89 241C90.1046 241 91 241.895 91 243ZM108 217C108 218.105 107.105 219 106 219C104.895 219 104 218.105 104 217C104 215.895 104.895 215 106 215C107.105 215 108 215.895 108 217ZM110 224C110 225.105 109.105 226 108 226C106.895 226 106 225.105 106 224C106 222.895 106.895 222 108 222C109.105 222 110 222.895 110 224ZM115 220C115 221.105 114.105 222 113 222C111.895 222 111 221.105 111 220C111 218.895 111.895 218 113 218C114.105 218 115 218.895 115 220ZM115 206C115 207.105 114.105 208 113 208C111.895 208 111 207.105 111 206C111 204.895 111.895 204 113 204C114.105 204 115 204.895 115 206ZM137 236C137 237.105 136.105 238 135 238C133.895 238 133 237.105 133 236C133 234.895 133.895 234 135 234C136.105 234 137 234.895 137 236ZM134 206C134 207.105 133.105 208 132 208C130.895 208 130 207.105 130 206C130 204.895 130.895 204 132 204C133.105 204 134 204.895 134 206ZM122 199C122 200.105 121.105 201 120 201C118.895 201 118 200.105 118 199C118 197.895 118.895 197 120 197C121.105 197 122 197.895 122 199ZM126 175C126 176.105 125.105 177 124 177C122.895 177 122 176.105 122 175C122 173.895 122.895 173 124 173C125.105 173 126 173.895 126 175ZM135 201C135 202.105 134.105 203 133 203C131.895 203 131 202.105 131 201C131 199.895 131.895 199 133 199C134.105 199 135 199.895 135 201ZM152 175C152 176.105 151.105 177 150 177C148.895 177 148 176.105 148 175C148 173.895 148.895 173 150 173C151.105 173 152 173.895 152 175ZM148 162C148 163.105 147.105 164 146 164C144.895 164 144 163.105 144 162C144 160.895 144.895 160 146 160C147.105 160 148 160.895 148 162ZM165 177C165 178.105 164.105 179 163 179C161.895 179 161 178.105 161 177C161 175.895 161.895 175 163 175C164.105 175 165 175.895 165 177ZM159 159C159 160.105 158.105 161 157 161C155.895 161 155 160.105 155 159C155 157.895 155.895 157 157 157C158.105 157 159 157.895 159 159ZM177 163C177 164.105 176.105 165 175 165C173.895 165 173 164.105 173 163C173 161.895 173.895 161 175 161C176.105 161 177 161.895 177 163ZM171 154C171 155.105 170.105 156 169 156C167.895 156 167 155.105 167 154C167 152.895 167.895 152 169 152C170.105 152 171 152.895 171 154ZM202 150C202 151.105 201.105 152 200 152C198.895 152 198 151.105 198 150C198 148.895 198.895 148 200 148C201.105 148 202 148.895 202 150ZM215 132C215 133.105 214.105 134 213 134C211.895 134 211 133.105 211 132C211 130.895 211.895 130 213 130C214.105 130 215 130.895 215 132ZM233 125C233 126.105 232.105 127 231 127C229.895 127 229 126.105 229 125C229 123.895 229.895 123 231 123C232.105 123 233 123.895 233 125ZM244 54C244 55.1046 243.105 56 242 56C240.895 56 240 55.1046 240 54C240 52.8954 240.895 52 242 52C243.105 52 244 52.8954 244 54ZM224 52C224 53.1046 223.105 54 222 54C220.895 54 220 53.1046 220 52C220 50.8954 220.895 50 222 50C223.105 50 224 50.8954 224 52ZM229 26C229 27.1046 228.105 28 227 28C225.895 28 225 27.1046 225 26C225 24.8954 225.895 24 227 24C228.105 24 229 24.8954 229 26ZM188 9C188 10.1046 187.105 11 186 11C184.895 11 184 10.1046 184 9C184 7.89543 184.895 7 186 7C187.105 7 188 7.89543 188 9ZM164 3C164 4.10457 163.105 5 162 5C160.895 5 160 4.10457 160 3C160 1.89543 160.895 1 162 1C163.105 1 164 1.89543 164 3ZM118 11C118 12.1046 117.105 13 116 13C114.895 13 114 12.1046 114 11C114 9.89543 114.895 9 116 9C117.105 9 118 9.89543 118 11ZM99 24C99 25.1046 98.1046 26 97 26C95.8954 26 95 25.1046 95 24C95 22.8954 95.8954 22 97 22C98.1046 22 99 22.8954 99 24ZM69 55C69 56.1046 68.1046 57 67 57C65.8954 57 65 56.1046 65 55C65 53.8954 65.8954 53 67 53C68.1046 53 69 53.8954 69 55ZM77 74C77 75.1046 76.1046 76 75 76C73.8954 76 73 75.1046 73 74C73 72.8954 73.8954 72 75 72C76.1046 72 77 72.8954 77 74ZM65 92C65 93.1046 64.1046 94 63 94C61.8954 94 61 93.1046 61 92C61 90.8954 61.8954 90 63 90C64.1046 90 65 90.8954 65 92ZM109 95C109 96.1046 108.105 97 107 97C105.895 97 105 96.1046 105 95C105 93.8954 105.895 93 107 93C108.105 93 109 93.8954 109 95ZM117 107C117 108.105 116.105 109 115 109C113.895 109 113 108.105 113 107C113 105.895 113.895 105 115 105C116.105 105 117 105.895 117 107ZM123 115C123 116.105 122.105 117 121 117C119.895 117 119 116.105 119 115C119 113.895 119.895 113 121 113C122.105 113 123 113.895 123 115ZM148 115C148 116.105 147.105 117 146 117C144.895 117 144 116.105 144 115C144 113.895 144.895 113 146 113C147.105 113 148 113.895 148 115ZM144 107C144 108.105 143.105 109 142 109C140.895 109 140 108.105 140 107C140 105.895 140.895 105 142 105C143.105 105 144 105.895 144 107ZM175 95C175 96.1046 174.105 97 173 97C171.895 97 171 96.1046 171 95C171 93.8954 171.895 93 173 93C174.105 93 175 93.8954 175 95ZM198 97C198 98.1046 197.105 99 196 99C194.895 99 194 98.1046 194 97C194 95.8954 194.895 95 196 95C197.105 95 198 95.8954 198 97ZM175 113C175 114.105 174.105 115 173 115C171.895 115 171 114.105 171 113C171 111.895 171.895 111 173 111C174.105 111 175 111.895 175 113ZM184 113C184 114.105 183.105 115 182 115C180.895 115 180 114.105 180 113C180 111.895 180.895 111 182 111C183.105 111 184 111.895 184 113ZM182 129C182 130.105 181.105 131 180 131C178.895 131 178 130.105 178 129C178 127.895 178.895 127 180 127C181.105 127 182 127.895 182 129ZM222 97C222 98.1046 221.105 99 220 99C218.895 99 218 98.1046 218 97C218 95.8954 218.895 95 220 95C221.105 95 222 95.8954 222 97ZM204 91C204 92.1046 203.105 93 202 93C200.895 93 200 92.1046 200 91C200 89.8954 200.895 89 202 89C203.105 89 204 89.8954 204 91ZM194 74C194 75.1046 193.105 76 192 76C190.895 76 190 75.1046 190 74C190 72.8954 190.895 72 192 72C193.105 72 194 72.8954 194 74ZM188 70C188 71.1046 187.105 72 186 72C184.895 72 184 71.1046 184 70C184 68.8954 184.895 68 186 68C187.105 68 188 68.8954 188 70ZM173 48C173 49.1046 172.105 50 171 50C169.895 50 169 49.1046 169 48C169 46.8954 169.895 46 171 46C172.105 46 173 46.8954 173 48ZM182 41C182 42.1046 181.105 43 180 43C178.895 43 178 42.1046 178 41C178 39.8954 178.895 39 180 39C181.105 39 182 39.8954 182 41ZM184 30C184 31.1046 183.105 32 182 32C180.895 32 180 31.1046 180 30C180 28.8954 180.895 28 182 28C183.105 28 184 28.8954 184 30ZM144 20C144 21.1046 143.105 22 142 22C140.895 22 140 21.1046 140 20C140 18.8954 140.895 18 142 18C143.105 18 144 18.8954 144 20ZM144 13C144 14.1046 143.105 15 142 15C140.895 15 140 14.1046 140 13C140 11.8954 140.895 11 142 11C143.105 11 144 11.8954 144 13ZM144 43C144 44.1046 143.105 45 142 45C140.895 45 140 44.1046 140 43C140 41.8954 140.895 41 142 41C143.105 41 144 41.8954 144 43ZM165 41C165 42.1046 164.105 43 163 43C161.895 43 161 42.1046 161 41C161 39.8954 161.895 39 163 39C164.105 39 165 39.8954 165 41ZM144 63C144 64.1046 143.105 65 142 65C140.895 65 140 64.1046 140 63C140 61.8954 140.895 61 142 61C143.105 61 144 61.8954 144 63ZM161 67C161 68.1046 160.105 69 159 69C157.895 69 157 68.1046 157 67C157 65.8954 157.895 65 159 65C160.105 65 161 65.8954 161 67ZM159 80C159 81.1046 158.105 82 157 82C155.895 82 155 81.1046 155 80C155 78.8954 155.895 78 157 78C158.105 78 159 78.8954 159 80ZM146 87C146 88.1046 145.105 89 144 89C142.895 89 142 88.1046 142 87C142 85.8954 142.895 85 144 85C145.105 85 146 85.8954 146 87ZM129 83C129 84.1046 128.105 85 127 85C125.895 85 125 84.1046 125 83C125 81.8954 125.895 81 127 81C128.105 81 129 81.8954 129 83ZM113 55C113 56.1046 112.105 57 111 57C109.895 57 109 56.1046 109 55C109 53.8954 109.895 53 111 53C112.105 53 113 53.8954 113 55ZM91 52C91 53.1046 90.1046 54 89 54C87.8954 54 87 53.1046 87 52C87 50.8954 87.8954 50 89 50C90.1046 50 91 50.8954 91 52ZM82 129C82 130.105 81.1046 131 80 131C78.8954 131 78 130.105 78 129C78 127.895 78.8954 127 80 127C81.1046 127 82 127.895 82 129ZM102 135C102 136.105 101.105 137 100 137C98.8954 137 98 136.105 98 135C98 133.895 98.8954 133 100 133C101.105 133 102 133.895 102 135ZM129 141C129 142.105 128.105 143 127 143C125.895 143 125 142.105 125 141C125 139.895 125.895 139 127 139C128.105 139 129 139.895 129 141ZM116 115C116 116.105 115.105 117 114 117C112.895 117 112 116.105 112 115C112 113.895 112.895 113 114 113C115.105 113 116 113.895 116 115ZM136 141C136 142.105 135.105 143 134 143C132.895 143 132 142.105 132 141C132 139.895 132.895 139 134 139C135.105 139 136 139.895 136 141ZM130 157C130 158.105 129.105 159 128 159C126.895 159 126 158.105 126 157C126 155.895 126.895 155 128 155C129.105 155 130 155.895 130 157ZM115 157C115 158.105 114.105 159 113 159C111.895 159 111 158.105 111 157C111 155.895 111.895 155 113 155C114.105 155 115 155.895 115 157ZM106 155C106 156.105 105.105 157 104 157C102.895 157 102 156.105 102 155C102 153.895 102.895 153 104 153C105.105 153 106 153.895 106 155ZM101 174C101 175.105 100.105 176 99 176C97.8954 176 97 175.105 97 174C97 172.895 97.8954 172 99 172C100.105 172 101 172.895 101 174ZM120 175C120 176.105 119.105 177 118 177C116.895 177 116 176.105 116 175C116 173.895 116.895 173 118 173C119.105 173 120 173.895 120 175ZM115 195C115 196.105 114.105 197 113 197C111.895 197 111 196.105 111 195C111 193.895 111.895 193 113 193C114.105 193 115 193.895 115 195ZM87 230C87 231.105 86.1046 232 85 232C83.8954 232 83 231.105 83 230C83 228.895 83.8954 228 85 228C86.1046 228 87 228.895 87 230ZM79 220C79 221.105 78.1046 222 77 222C75.8954 222 75 221.105 75 220C75 218.895 75.8954 218 77 218C78.1046 218 79 218.895 79 220ZM89 203C89 204.105 88.1046 205 87 205C85.8954 205 85 204.105 85 203C85 201.895 85.8954 201 87 201C88.1046 201 89 201.895 89 203ZM79 170C79 171.105 78.1046 172 77 172C75.8954 172 75 171.105 75 170C75 168.895 75.8954 168 77 168C78.1046 168 79 168.895 79 170ZM77 226C77 227.105 76.1046 228 75 228C73.8954 228 73 227.105 73 226C73 224.895 73.8954 224 75 224C76.1046 224 77 224.895 77 226ZM71 254C71 255.105 70.1046 256 69 256C67.8954 256 67 255.105 67 254C67 252.895 67.8954 252 69 252C70.1046 252 71 252.895 71 254ZM50 243C50 244.105 49.1046 245 48 245C46.8954 245 46 244.105 46 243C46 241.895 46.8954 241 48 241C49.1046 241 50 241.895 50 243ZM27 235C27 236.105 26.1046 237 25 237C23.8954 237 23 236.105 23 235C23 233.895 23.8954 233 25 233C26.1046 233 27 233.895 27 235ZM82 302C82 303.105 81.1046 304 80 304C78.8954 304 78 303.105 78 302C78 300.895 78.8954 300 80 300C81.1046 300 82 300.895 82 302ZM58 207C58 208.105 57.1046 209 56 209C54.8954 209 54 208.105 54 207C54 205.895 54.8954 205 56 205C57.1046 205 58 205.895 58 207ZM23 205C23 206.105 22.1046 207 21 207C19.8954 207 19 206.105 19 205C19 203.895 19.8954 203 21 203C22.1046 203 23 203.895 23 205ZM5 229C5 230.105 4.10457 231 3 231C1.89543 231 1 230.105 1 229C1 227.895 1.89543 227 3 227C4.10457 227 5 227.895 5 229ZM38 279C38 280.105 37.1046 281 36 281C34.8954 281 34 280.105 34 279C34 277.895 34.8954 277 36 277C37.1046 277 38 277.895 38 279ZM58 191C58 192.105 57.1046 193 56 193C54.8954 193 54 192.105 54 191C54 189.895 54.8954 189 56 189C57.1046 189 58 189.895 58 191Z" stroke="#FFB908"/>
</svg>
